# xmcd
#
# Track frame offsets:
#	150
#	22391
#	34297
#	53253
#	74167
#	93345
#	113404
#	124806
#	135257
#	149243
#	163697
#	175240
#	189999
#	206547
#	219741
#	231340
#
# Disc length: 3330 seconds
#
# Revision: 0
# Processed by: cddbd v1.5.2PL0 Copyright (c) Steve Scherf et al.
# Submitted via: dBpowerAMP V4.0
#
DISCID=f00d0010
DTITLE=varios - Lo esencial
DYEAR=2009
DGENRE=Other
TTITLE0=luis eduardo aute - sin tu latido
TTITLE1=facundo cabral - no soy de aqui ni soy de alla
TTITLE2=victor manuel - solo pienso en ti
TTITLE3=leon gieco - solo le pido a dios
TTITLE4=guadalupe pineda - jacinto cenobio
TTITLE5=joaquin sabina - calle melancolia
TTITLE6=juan savador - solo
TTITLE7=tania libertad y pablo milanes - el primer amor
TTITLE8=alberto cortes - en un rincon del alma
TTITLE9=maria dolores pradera - fina estampa
TTITLE10=atahualpa yupanqui - hay leña que arde sin humo
TTITLE11=chavela vargas - noche de ronda
TTITLE12=pedro guerra - el marido de la peuquera
TTITLE13=juan salvador - al doblar la esquina
TTITLE14=guadalupe pineda - por ti
TTITLE15=aldo monges - la tristeza de mi mujer
EXTD=
EXTT0=
EXTT1=
EXTT2=
EXTT3=
EXTT4=
EXTT5=
EXTT6=
EXTT7=
EXTT8=
EXTT9=
EXTT10=
EXTT11=
EXTT12=
EXTT13=
EXTT14=
EXTT15=
PLAYORDER=
